<?xml version="1.0" standalone="no"?>
<!DOCTYPE svg PUBLIC "-//W3C//DTD SVG 20010904//EN"
 "http://www.w3.org/TR/2001/REC-SVG-20010904/DTD/svg10.dtd">
<svg version="1.0" xmlns="http://www.w3.org/2000/svg"
 width="260.000000pt" height="260.000000pt" viewBox="0 0 260.000000 260.000000"
 preserveAspectRatio="xMidYMid meet">
<metadata>
Created by potrace 1.11, written by Peter Selinger 2001-2013
</metadata>
<g transform="translate(0.000000,260.000000) scale(0.100000,-0.100000)"
fill="#000000" stroke="none">
<path d="M1385 2590 c-3 -5 -8 -33 -11 -62 -11 -105 -58 -179 -269 -428 -58
-69 -135 -169 -171 -222 -117 -176 -154 -282 -148 -429 8 -220 135 -428 355
-577 73 -49 91 -50 126 -5 17 21 35 47 41 58 20 39 115 152 232 275 257 272
283 324 276 545 -5 137 -6 148 -47 268 -26 79 -115 264 -172 357 -38 63 -128
179 -158 205 -33 27 -44 30 -54 15z"/>
<path d="M1920 1951 c-5 -11 -12 -97 -14 -191 -3 -94 -10 -188 -17 -208 -24
-73 -87 -157 -253 -335 -115 -125 -192 -227 -206 -275 -13 -43 -2 -85 27 -100
21 -11 352 62 445 97 65 25 158 91 212 151 62 69 69 95 74 295 4 172 3 184
-20 252 -32 91 -111 224 -169 285 -50 53 -63 58 -79 29z"/>
<path d="M624 1652 c-64 -47 -132 -129 -171 -210 -35 -70 -38 -83 -38 -162 0
-76 4 -93 32 -150 72 -146 226 -252 424 -290 73 -14 139 -7 139 15 0 8 -17 29
-37 47 -90 77 -212 206 -231 245 -33 64 -43 126 -42 262 2 209 1 243 -11 257
-16 19 -20 18 -65 -14z"/>
<path d="M550 781 c-49 -16 -110 -51 -120 -70 -14 -27 -13 -57 5 -91 l15 -30
58 30 c100 52 121 48 250 -48 45 -33 107 -70 139 -82 55 -20 59 -21 102 -4 26
9 83 42 129 73 186 126 185 126 345 14 89 -62 165 -93 216 -87 47 6 122 43
197 97 111 81 123 84 208 47 l47 -20 24 24 c22 22 23 28 14 56 -20 56 -106
105 -173 98 -44 -5 -54 -11 -221 -127 -41 -28 -72 -42 -97 -43 -45 -2 -121 35
-208 101 -74 56 -115 70 -189 66 -55 -3 -71 -11 -212 -110 -65 -46 -76 -50
-128 -50 -50 0 -63 5 -116 42 -157 112 -164 116 -213 119 -26 2 -58 0 -72 -5z"/>
<path d="M526 530 c-54 -27 -103 -66 -108 -87 -7 -27 7 -60 31 -73 17 -8 30
-6 68 14 45 22 76 30 115 27 9 -1 58 -32 110 -71 178 -133 253 -132 435 7 110
84 157 82 278 -8 174 -130 263 -130 432 -2 95 73 138 86 191 59 60 -31 102
-16 102 37 0 62 -113 128 -195 113 -21 -4 -73 -36 -133 -80 -160 -122 -198
-122 -353 -7 -130 97 -184 110 -274 67 -27 -13 -77 -45 -110 -71 -132 -104
-183 -106 -300 -15 -135 104 -210 128 -289 90z"/>
<path d="M539 291 c-107 -33 -152 -107 -96 -159 l24 -22 60 31 c76 39 98 35
195 -35 187 -136 273 -137 456 -3 116 84 178 83 274 -6 65 -61 162 -97 242
-91 59 5 119 34 209 102 61 46 90 59 122 52 5 -1 39 -4 74 -7 54 -5 66 -3 77
12 38 51 -84 146 -170 132 -51 -8 -101 -34 -180 -94 -38 -29 -87 -58 -108 -64
-55 -14 -125 0 -160 34 -30 29 -119 88 -159 107 -87 39 -169 19 -288 -72 -94
-72 -144 -87 -206 -63 -25 9 -78 40 -118 68 -117 84 -123 87 -174 86 -26 0
-60 -4 -74 -8z"/>
</g>
</svg>
