<!DOCTYPE svg PUBLIC "-//W3C//DTD SVG 20010904//EN" "http://www.w3.org/TR/2001/REC-SVG-20010904/DTD/svg10.dtd">
<svg  version="1.0" xmlns="http://www.w3.org/2000/svg" width="1600px" height="1011px" viewBox="0 0 16000 10110" preserveAspectRatio="xMidYMid meet">
<g id="layer101" fill="#000000" stroke="none">
 <path d="M0 5055 l0 -5055 8000 0 8000 0 0 5055 0 5055 -8000 0 -8000 0 0 -5055z"/>
 </g>
<g id="layer102" fill="#d4232b" stroke="none">
 <path d="M0 5055 l0 -5055 8000 0 8000 0 0 5055 0 5055 -8000 0 -8000 0 0 -5055z m8823 3955 c139 -20 230 -87 261 -191 20 -65 20 -82 1 -146 -18 -60 -71 -118 -134 -146 l-45 -20 36 -18 c48 -25 106 -94 114 -136 21 -112 -20 -194 -123 -245 -67 -33 -68 -33 -218 -33 -82 0 -162 3 -177 8 l-28 7 0 460 0 459 38 4 c76 8 209 6 275 -3z m-3553 -22 c0 -13 7 -129 14 -258 8 -129 18 -302 22 -385 l7 -149 33 119 c18 66 76 246 128 399 53 154 96 281 96 283 0 1 22 3 48 3 l48 0 94 -257 c51 -141 114 -320 140 -398 l47 -140 7 150 c9 210 25 497 32 583 l6 72 58 0 58 0 -4 -57 c-7 -82 -54 -839 -54 -858 0 -12 -15 -15 -79 -15 l-78 0 -76 208 c-103 281 -142 393 -168 482 l-21 74 -32 -109 c-17 -61 -74 -233 -126 -382 l-95 -273 -77 0 -77 0 -5 33 c-3 17 -17 208 -31 422 -14 215 -28 409 -31 433 l-5 42 60 0 c57 0 61 -2 61 -22z m1690 -28 l0 -50 -205 0 -205 0 0 -170 0 -170 180 0 180 0 0 -50 0 -50 -180 0 -180 0 0 -145 0 -145 195 0 195 0 0 -50 0 -50 -255 0 -255 0 0 465 0 465 265 0 265 0 0 -50z m384 8 c8 -68 25 -358 32 -538 8 -232 10 -236 49 -100 19 63 76 239 127 390 l93 275 49 0 49 0 94 -255 c51 -140 114 -320 141 -400 l47 -145 2 65 c1 36 10 219 19 408 l18 342 58 0 58 0 -1 -42 c0 -24 -13 -232 -27 -463 l-27 -420 -79 0 -79 0 -89 240 c-49 132 -108 303 -132 380 l-44 139 -12 -44 c-32 -121 -123 -394 -221 -662 l-21 -58 -79 0 c-76 0 -79 1 -79 24 0 12 -13 213 -30 446 -16 233 -30 431 -30 441 0 16 8 19 54 19 l55 0 5 -42z m2576 -8 l0 -50 -200 0 -200 0 0 -170 0 -170 180 0 180 0 0 -50 0 -50 -180 0 -180 0 0 -145 0 -145 190 0 190 0 0 -50 0 -50 -250 0 -250 0 0 465 0 465 260 0 260 0 0 -50z m420 -155 l0 -205 58 0 c110 1 169 26 206 89 10 18 32 85 48 149 44 179 39 172 110 172 58 0 60 -1 54 -22 -4 -13 -23 -83 -42 -156 -45 -175 -71 -224 -138 -260 -18 -9 -16 -12 20 -30 51 -26 108 -89 124 -137 20 -61 9 -165 -23 -214 -62 -94 -163 -126 -367 -118 -74 3 -143 8 -152 12 -17 7 -18 38 -18 466 l0 459 60 0 60 0 0 -205z m109 -5640 c132 -31 261 -116 353 -229 45 -56 117 -184 133 -233 6 -20 3 -23 -24 -23 -23 0 -39 9 -63 38 -128 147 -221 212 -353 247 -67 17 -189 19 -254 4 -69 -16 -145 -56 -201 -106 -96 -86 -138 -192 -147 -369 -3 -61 -3 -123 1 -138 l6 -26 500 0 500 0 -5 -22 c-3 -13 -12 -59 -21 -103 -23 -119 -63 -196 -138 -271 -109 -106 -246 -159 -411 -157 -207 2 -428 132 -540 318 -136 227 -132 606 9 818 75 112 222 214 366 251 73 19 209 19 289 1z m1317 -16 c92 -28 139 -56 202 -123 69 -73 93 -130 100 -232 4 -72 1 -88 -21 -137 -53 -115 -142 -184 -433 -330 -184 -93 -250 -142 -283 -210 -22 -45 -27 -110 -12 -149 13 -35 61 -79 111 -101 33 -15 65 -20 125 -19 100 1 152 17 265 81 50 28 96 51 104 51 7 0 21 -11 30 -24 16 -25 15 -25 -55 -72 -195 -129 -411 -150 -605 -58 -62 29 -147 117 -177 181 -33 73 -31 200 5 268 53 102 183 202 433 336 157 84 227 142 244 203 24 88 -35 186 -143 237 -84 40 -159 40 -265 -1 -76 -30 -196 -106 -235 -149 -24 -26 -48 -27 -71 -2 -16 19 -16 21 5 51 69 96 252 203 385 224 62 9 224 -4 291 -25z m-7830 -34 c47 -50 -15 -25 779 -308 l260 -93 84 188 c46 103 93 198 105 211 18 20 36 25 100 31 77 7 216 -1 216 -12 0 -9 -715 -1527 -780 -1657 -58 -115 -78 -137 -107 -119 -10 6 -131 258 -268 560 -317 695 -555 1221 -555 1227 0 10 44 14 90 9 35 -3 52 -12 76 -37z m2278 29 c133 -34 259 -129 356 -269 45 -66 80 -143 80 -178 0 -13 -53 29 -127 100 -290 280 -679 156 -803 -255 -44 -145 -14 -367 65 -492 37 -58 121 -129 193 -163 158 -74 373 -34 508 94 l30 29 27 -28 28 -29 -51 -47 c-60 -56 -171 -111 -255 -127 -79 -15 -213 -5 -301 22 -123 37 -201 85 -300 184 -76 76 -98 105 -138 185 -62 126 -79 212 -73 360 7 190 70 340 194 465 69 68 156 120 248 146 79 23 236 24 319 3z m875 -496 c-3 -460 -2 -496 15 -530 59 -121 267 -207 407 -168 47 13 104 71 126 129 16 41 18 96 21 554 l3 507 128 0 128 0 6 -227 c15 -497 3 -820 -33 -916 -51 -135 -160 -216 -304 -225 -124 -8 -217 24 -402 136 -56 34 -105 62 -108 62 -3 0 -6 -198 -6 -440 l0 -439 -120 42 -120 42 0 982 0 983 131 0 131 0 -3 -492z m1351 -153 c0 -355 -4 -645 -8 -645 -30 0 -220 74 -234 91 -17 20 -18 64 -18 610 l0 589 130 0 130 0 0 -645z m530 -280 c0 -509 -1 -925 -3 -925 -5 0 -230 79 -232 82 -23 29 -25 95 -25 907 l0 861 130 0 130 0 0 -925z m530 -96 c0 -969 -1 -1021 -17 -1014 -10 4 -63 23 -118 42 -55 19 -106 41 -112 50 -10 13 -13 225 -13 980 l0 963 130 0 130 0 0 -1021z"/>
 <path d="M8630 8739 l0 -182 93 6 c98 5 156 23 196 60 67 62 67 182 0 244 -40 36 -103 53 -200 53 l-89 0 0 -181z"/>
 <path d="M8630 8322 l0 -151 46 -7 c60 -9 139 2 191 27 101 48 97 193 -7 253 -26 16 -57 21 -132 24 l-98 4 0 -150z"/>
 <path d="M10340 8342 l0 -170 64 -7 c74 -8 154 6 202 35 95 59 82 230 -21 284 -31 16 -63 22 -142 24 l-103 4 0 -170z"/>
 <path d="M9905 2199 c12 -61 65 -157 113 -205 67 -68 149 -104 234 -104 171 0 280 103 302 283 l6 47 -248 0 c-136 0 -285 3 -331 7 l-83 6 7 -34z"/>
 <path d="M4104 2698 c67 -150 192 -427 276 -615 85 -189 156 -343 159 -343 6 0 391 865 394 884 2 6 -795 297 -934 341 -13 4 17 -71 105 -267z"/>
 </g>
<g id="layer103" fill="#ffffff" stroke="none">
 <path d="M0 5055 l0 -5055 8000 0 8000 0 0 5055 0 5055 -8000 0 -8000 0 0 -5055z m8823 3955 c139 -20 230 -87 261 -191 20 -65 20 -82 1 -146 -18 -60 -71 -118 -134 -146 l-45 -20 36 -18 c48 -25 106 -94 114 -136 21 -112 -20 -194 -123 -245 -67 -33 -68 -33 -218 -33 -82 0 -162 3 -177 8 l-28 7 0 460 0 459 38 4 c76 8 209 6 275 -3z m-3553 -22 c0 -13 7 -129 14 -258 8 -129 18 -302 22 -385 l7 -149 33 119 c18 66 76 246 128 399 53 154 96 281 96 283 0 1 22 3 48 3 l48 0 94 -257 c51 -141 114 -320 140 -398 l47 -140 7 150 c9 210 25 497 32 583 l6 72 58 0 58 0 -4 -57 c-7 -82 -54 -839 -54 -858 0 -12 -15 -15 -79 -15 l-78 0 -76 208 c-103 281 -142 393 -168 482 l-21 74 -32 -109 c-17 -61 -74 -233 -126 -382 l-95 -273 -77 0 -77 0 -5 33 c-3 17 -17 208 -31 422 -14 215 -28 409 -31 433 l-5 42 60 0 c57 0 61 -2 61 -22z m1690 -28 l0 -50 -205 0 -205 0 0 -170 0 -170 180 0 180 0 0 -50 0 -50 -180 0 -180 0 0 -145 0 -145 195 0 195 0 0 -50 0 -50 -255 0 -255 0 0 465 0 465 265 0 265 0 0 -50z m384 8 c8 -68 25 -358 32 -538 8 -232 10 -236 49 -100 19 63 76 239 127 390 l93 275 49 0 49 0 94 -255 c51 -140 114 -320 141 -400 l47 -145 2 65 c1 36 10 219 19 408 l18 342 58 0 58 0 -1 -42 c0 -24 -13 -232 -27 -463 l-27 -420 -79 0 -79 0 -89 240 c-49 132 -108 303 -132 380 l-44 139 -12 -44 c-32 -121 -123 -394 -221 -662 l-21 -58 -79 0 c-76 0 -79 1 -79 24 0 12 -13 213 -30 446 -16 233 -30 431 -30 441 0 16 8 19 54 19 l55 0 5 -42z m2576 -8 l0 -50 -200 0 -200 0 0 -170 0 -170 180 0 180 0 0 -50 0 -50 -180 0 -180 0 0 -145 0 -145 190 0 190 0 0 -50 0 -50 -250 0 -250 0 0 465 0 465 260 0 260 0 0 -50z m420 -155 l0 -205 58 0 c110 1 169 26 206 89 10 18 32 85 48 149 44 179 39 172 110 172 58 0 60 -1 54 -22 -4 -13 -23 -83 -42 -156 -45 -175 -71 -224 -138 -260 -18 -9 -16 -12 20 -30 51 -26 108 -89 124 -137 20 -61 9 -165 -23 -214 -62 -94 -163 -126 -367 -118 -74 3 -143 8 -152 12 -17 7 -18 38 -18 466 l0 459 60 0 60 0 0 -205z m-6950 -305 l0 -160 -705 0 -705 0 0 -475 0 -475 -165 0 -165 0 0 635 0 635 870 0 870 0 0 -160z m10980 -475 l0 -635 -160 0 -160 0 0 475 0 475 -705 0 -705 0 0 160 0 160 865 0 865 0 0 -635z m1200 -2610 l0 -1265 -7605 0 -7605 0 0 1265 0 1265 7605 0 7605 0 0 -1265z m-13590 -2505 l0 -480 705 0 705 0 0 -160 0 -160 -870 0 -870 0 0 640 0 640 165 0 165 0 0 -480z m12390 -160 l0 -640 -865 0 -865 0 0 160 0 160 705 0 705 0 0 480 0 480 160 0 160 0 0 -640z m-3921 415 c132 -31 261 -116 353 -229 45 -56 117 -184 133 -233 6 -20 3 -23 -24 -23 -23 0 -39 9 -63 38 -128 147 -221 212 -353 247 -67 17 -189 19 -254 4 -69 -16 -145 -56 -201 -106 -96 -86 -138 -192 -147 -369 -3 -61 -3 -123 1 -138 l6 -26 500 0 500 0 -5 -22 c-3 -13 -12 -59 -21 -103 -23 -119 -63 -196 -138 -271 -109 -106 -246 -159 -411 -157 -207 2 -428 132 -540 318 -136 227 -132 606 9 818 75 112 222 214 366 251 73 19 209 19 289 1z m1317 -16 c92 -28 139 -56 202 -123 69 -73 93 -130 100 -232 4 -72 1 -88 -21 -137 -53 -115 -142 -184 -433 -330 -184 -93 -250 -142 -283 -210 -22 -45 -27 -110 -12 -149 13 -35 61 -79 111 -101 33 -15 65 -20 125 -19 100 1 152 17 265 81 50 28 96 51 104 51 7 0 21 -11 30 -24 16 -25 15 -25 -55 -72 -195 -129 -411 -150 -605 -58 -62 29 -147 117 -177 181 -33 73 -31 200 5 268 53 102 183 202 433 336 157 84 227 142 244 203 24 88 -35 186 -143 237 -84 40 -159 40 -265 -1 -76 -30 -196 -106 -235 -149 -24 -26 -48 -27 -71 -2 -16 19 -16 21 5 51 69 96 252 203 385 224 62 9 224 -4 291 -25z m-7830 -34 c47 -50 -15 -25 779 -308 l260 -93 84 188 c46 103 93 198 105 211 18 20 36 25 100 31 77 7 216 -1 216 -12 0 -9 -715 -1527 -780 -1657 -58 -115 -78 -137 -107 -119 -10 6 -131 258 -268 560 -317 695 -555 1221 -555 1227 0 10 44 14 90 9 35 -3 52 -12 76 -37z m2278 29 c133 -34 259 -129 356 -269 45 -66 80 -143 80 -178 0 -13 -53 29 -127 100 -290 280 -679 156 -803 -255 -44 -145 -14 -367 65 -492 37 -58 121 -129 193 -163 158 -74 373 -34 508 94 l30 29 27 -28 28 -29 -51 -47 c-60 -56 -171 -111 -255 -127 -79 -15 -213 -5 -301 22 -123 37 -201 85 -300 184 -76 76 -98 105 -138 185 -62 126 -79 212 -73 360 7 190 70 340 194 465 69 68 156 120 248 146 79 23 236 24 319 3z m875 -496 c-3 -460 -2 -496 15 -530 59 -121 267 -207 407 -168 47 13 104 71 126 129 16 41 18 96 21 554 l3 507 128 0 128 0 6 -227 c15 -497 3 -820 -33 -916 -51 -135 -160 -216 -304 -225 -124 -8 -217 24 -402 136 -56 34 -105 62 -108 62 -3 0 -6 -198 -6 -440 l0 -439 -120 42 -120 42 0 982 0 983 131 0 131 0 -3 -492z m1351 -153 c0 -355 -4 -645 -8 -645 -30 0 -220 74 -234 91 -17 20 -18 64 -18 610 l0 589 130 0 130 0 0 -645z m530 -280 c0 -509 -1 -925 -3 -925 -5 0 -230 79 -232 82 -23 29 -25 95 -25 907 l0 861 130 0 130 0 0 -925z m530 -96 c0 -969 -1 -1021 -17 -1014 -10 4 -63 23 -118 42 -55 19 -106 41 -112 50 -10 13 -13 225 -13 980 l0 963 130 0 130 0 0 -1021z m-1146 -343 c67 -36 81 -64 84 -173 3 -58 0 -99 -7 -106 -16 -16 -218 59 -233 87 -6 11 -14 71 -16 133 l-4 112 68 -16 c38 -8 87 -25 108 -37z"/>
 <path d="M8630 8739 l0 -182 93 6 c98 5 156 23 196 60 67 62 67 182 0 244 -40 36 -103 53 -200 53 l-89 0 0 -181z"/>
 <path d="M8630 8322 l0 -151 46 -7 c60 -9 139 2 191 27 101 48 97 193 -7 253 -26 16 -57 21 -132 24 l-98 4 0 -150z"/>
 <path d="M10340 8342 l0 -170 64 -7 c74 -8 154 6 202 35 95 59 82 230 -21 284 -31 16 -63 22 -142 24 l-103 4 0 -170z"/>
 <path d="M6610 5350 l0 -490 260 0 260 0 0 50 0 50 -200 0 -200 0 0 165 0 165 185 0 185 0 0 50 0 50 -185 0 -185 0 0 225 0 225 -60 0 -60 0 0 -490z"/>
 <path d="M7320 5351 l0 -489 86 -7 c117 -10 279 -1 335 20 59 21 123 75 152 129 18 34 22 57 22 136 0 87 -3 100 -30 149 -60 109 -172 161 -346 161 l-99 0 0 195 0 195 -60 0 -60 0 0 -489z m321 -11 c94 -26 149 -97 149 -193 0 -136 -76 -197 -247 -197 -111 0 -103 -16 -103 200 0 141 3 190 13 193 22 10 151 7 188 -3z"/>
 <path d="M8037 5413 c80 -236 155 -456 166 -491 l21 -63 79 3 79 3 164 480 c90 264 164 483 164 488 0 4 -30 7 -67 5 l-66 -3 -51 -150 -51 -150 -176 -3 -176 -2 -48 155 -49 155 -67 0 -67 0 145 -427z m403 11 c0 -5 -65 -211 -137 -434 -3 -8 -17 28 -32 80 -15 52 -48 155 -74 228 l-46 132 144 0 c80 0 145 -3 145 -6z"/>
 <path d="M8860 5350 l0 -490 65 0 65 0 0 435 0 435 210 0 210 0 0 55 0 55 -275 0 -275 0 0 -490z"/>
 <path d="M9905 2199 c12 -61 65 -157 113 -205 67 -68 149 -104 234 -104 171 0 280 103 302 283 l6 47 -248 0 c-136 0 -285 3 -331 7 l-83 6 7 -34z"/>
 <path d="M4104 2698 c67 -150 192 -427 276 -615 85 -189 156 -343 159 -343 6 0 391 865 394 884 2 6 -795 297 -934 341 -13 4 17 -71 105 -267z"/>
 </g>

</svg>