<!DOCTYPE svg PUBLIC "-//W3C//DTD SVG 20010904//EN" "http://www.w3.org/TR/2001/REC-SVG-20010904/DTD/svg10.dtd">
<svg version="1.0" xmlns="http://www.w3.org/2000/svg" width="111px" height="154px" viewBox="0 0 1110 1540" preserveAspectRatio="xMidYMid meet">
<g id="layerbg1" fill="#0000cc" stroke="none">
 <path d="M283 1528 c-17 -6 -52 -28 -78 -49 -53 -44 -84 -48 -125 -19 -27 19 -28 19 -45 0 -9 -10 -15 -26 -13 -36 5 -27 52 -56 99 -61 36 -4 50 0 79 21 142 104 144 104 271 4 15 -11 46 -22 70 -25 45 -5 80 12 160 78 35 28 93 28 128 0 78 -64 116 -82 154 -78 46 6 89 43 85 72 -3 21 -14 22 -88 10 -30 -5 -41 -1 -83 34 -65 54 -114 69 -175 52 -26 -7 -58 -22 -72 -35 -74 -68 -108 -71 -176 -18 -74 59 -123 71 -191 50z"/>
 <path d="M285 1386 c-16 -7 -49 -29 -73 -49 -58 -49 -75 -53 -124 -27 -40 21 -43 21 -55 4 -19 -26 -16 -40 13 -63 67 -53 119 -47 203 23 73 61 109 61 187 -4 88 -72 141 -74 220 -6 91 77 129 76 222 -5 54 -47 90 -56 137 -33 47 22 65 58 42 81 -14 15 -18 15 -50 -1 -42 -19 -58 -14 -116 36 -81 70 -157 74 -233 13 -90 -73 -125 -76 -196 -13 -64 55 -120 69 -177 44z"/>
 <path d="M292 1245 c-19 -8 -57 -33 -84 -55 -58 -46 -73 -48 -128 -20 l-40 21 -11 -25 c-16 -35 -6 -53 44 -77 57 -28 100 -21 153 25 21 18 54 41 72 50 43 22 74 12 150 -47 47 -36 62 -42 103 -42 34 0 56 6 76 22 105 82 146 95 194 60 13 -9 46 -33 73 -52 56 -41 90 -44 137 -12 37 25 48 57 25 76 -12 10 -21 9 -45 -3 -43 -23 -53 -21 -118 27 -108 81 -149 81 -256 1 -75 -56 -100 -56 -167 -3 -51 40 -107 69 -132 69 -7 -1 -28 -7 -46 -15z"/>
 </g>
<g id="layerbg2" fill="#fa0701" stroke="none">
 <path d="M255 1029 c-126 -40 -215 -142 -215 -245 0 -67 36 -139 101 -199 69 -64 77 -55 71 76 -7 150 7 198 77 268 31 31 69 65 85 77 63 44 -11 58 -119 23z"/>
 <path d="M442 1002 c-153 -116 -218 -295 -161 -447 28 -75 100 -180 202 -295 95 -107 126 -161 129 -220 1 -31 5 -40 17 -38 25 5 108 116 155 208 67 128 90 210 91 310 0 120 -24 166 -163 306 -61 62 -122 134 -141 167 -19 34 -39 57 -49 57 -9 0 -45 -21 -80 -48z"/>
 <path d="M652 1038 c-36 -36 0 -100 133 -238 45 -47 95 -107 111 -135 27 -47 29 -56 29 -162 0 -138 9 -153 59 -99 19 20 52 71 73 112 36 74 37 78 37 192 0 134 -8 156 -75 216 -55 50 -106 72 -225 96 -55 11 -106 23 -114 25 -9 3 -21 0 -28 -7z"/>
 </g>
<g id="layer101" fill="#0000cc" stroke="none">
 <path d="M285 1521 c-22 -10 -60 -34 -83 -55 -49 -41 -84 -46 -122 -16 -18 13 -28 16 -37 8 -37 -31 6 -77 80 -85 34 -4 49 0 77 21 142 104 144 104 271 4 15 -11 46 -22 70 -25 45 -5 80 12 160 78 35 28 93 28 128 0 78 -64 116 -82 154 -78 44 6 77 31 77 60 0 16 -5 18 -27 12 -79 -19 -86 -18 -143 30 -92 76 -157 81 -233 16 -87 -75 -113 -78 -185 -21 -49 39 -109 70 -134 70 -7 0 -31 -9 -53 -19z"/>
 <path d="M285 1376 c-16 -7 -49 -29 -73 -49 -58 -49 -75 -53 -124 -27 -33 17 -43 19 -50 8 -15 -24 -3 -43 44 -66 58 -29 90 -22 162 38 53 44 83 55 120 46 13 -3 45 -24 72 -46 88 -72 141 -74 220 -6 91 77 129 76 222 -5 24 -21 56 -41 72 -44 56 -12 133 46 102 77 -8 8 -21 6 -46 -6 -41 -19 -57 -14 -115 36 -81 70 -157 74 -233 13 -90 -73 -125 -76 -196 -13 -64 55 -120 69 -177 44z"/>
 <path d="M292 1235 c-19 -8 -57 -33 -84 -55 -57 -45 -73 -48 -127 -20 -34 17 -40 18 -45 4 -12 -32 -5 -45 38 -65 56 -28 99 -20 152 25 21 18 54 41 72 50 43 22 74 12 150 -47 47 -36 62 -42 103 -42 34 0 56 6 76 22 105 82 146 95 194 60 13 -9 46 -33 73 -52 55 -40 87 -43 134 -15 54 33 39 84 -17 55 -43 -22 -53 -20 -118 28 -108 81 -149 81 -256 1 -75 -56 -100 -56 -167 -3 -51 40 -107 69 -132 69 -7 -1 -28 -7 -46 -15z"/>
 </g>
<g id="layer102" fill="#fa0701" stroke="none">
 <path d="M259 1021 c-173 -55 -252 -201 -184 -338 26 -52 109 -138 124 -129 4 3 6 51 3 107 -7 143 7 195 69 264 28 30 66 64 85 75 19 12 34 26 34 31 0 15 -70 9 -131 -10z"/>
 <path d="M447 996 c-149 -111 -212 -291 -156 -441 28 -75 100 -180 202 -295 95 -107 126 -161 129 -220 1 -39 2 -40 21 -23 33 30 103 134 140 209 59 117 81 198 82 294 0 120 -24 164 -163 305 -60 61 -122 134 -138 162 -16 29 -36 53 -44 53 -8 0 -41 -20 -73 -44z"/>
 <path d="M657 1033 c-16 -15 -5 -63 24 -104 18 -24 69 -82 114 -129 45 -47 95 -107 111 -135 27 -47 29 -56 29 -165 0 -97 2 -115 15 -112 38 7 112 136 136 238 28 121 2 229 -71 293 -53 46 -105 67 -221 91 -55 11 -106 23 -115 25 -8 3 -18 2 -22 -2z"/>
 </g>

</svg>