<!DOCTYPE svg PUBLIC "-//W3C//DTD SVG 20010904//EN" "http://www.w3.org/TR/2001/REC-SVG-20010904/DTD/svg10.dtd">
<svg version="1.0" xmlns="http://www.w3.org/2000/svg" width="560px" height="368px" viewBox="0 0 5600 3680" preserveAspectRatio="xMidYMid meet">
<g id="layer101" fill="#1d1d74" stroke="none">
 <path d="M447 2933 c-4 -3 -7 -158 -7 -344 0 -298 2 -338 16 -343 9 -3 132 -6 275 -6 149 0 267 -4 277 -10 26 -14 110 -40 132 -40 10 0 22 -4 25 -10 3 -5 15 -10 25 -10 16 0 45 -12 100 -41 8 -5 30 -16 49 -25 49 -25 156 -98 214 -147 122 -101 357 -355 357 -385 0 -6 3 -12 8 -14 12 -5 116 -166 187 -288 79 -136 319 -613 329 -652 7 -31 42 -39 52 -13 9 23 210 22 235 -1 26 -23 43 -12 58 37 8 24 22 68 32 97 11 29 19 62 19 73 0 11 7 27 15 35 8 9 15 28 15 44 0 16 4 31 9 34 5 3 16 29 25 58 15 48 33 96 57 153 29 70 39 100 39 116 0 11 4 19 9 19 5 0 13 14 16 32 7 30 16 51 37 88 4 8 11 22 14 30 15 37 38 89 60 133 13 27 24 55 24 63 0 8 4 14 8 14 5 0 18 21 30 48 12 26 35 70 52 97 16 28 33 57 37 65 13 24 86 134 93 140 3 3 16 21 27 40 12 20 55 68 96 108 99 95 106 95 208 -5 44 -42 79 -81 79 -86 0 -5 10 -23 23 -40 37 -52 107 -185 107 -204 0 -6 7 -16 15 -23 8 -7 15 -21 15 -31 0 -11 4 -27 9 -37 24 -49 42 -99 80 -222 23 -74 46 -139 50 -143 4 -4 20 -3 35 3 40 15 123 12 157 -5 33 -17 34 -16 43 45 2 19 11 58 20 85 34 115 48 162 56 200 5 22 16 67 25 100 9 33 20 76 25 95 86 373 183 598 317 737 26 28 38 33 76 33 33 0 53 6 74 24 17 15 125 56 282 109 139 47 257 89 262 94 5 5 7 17 3 26 -8 22 -108 23 -184 1 -30 -9 -71 -19 -90 -23 -19 -5 -46 -13 -60 -19 -14 -5 -52 -18 -85 -28 -33 -9 -67 -22 -76 -27 -33 -20 -49 -1 -49 57 0 68 1 68 -165 64 l-120 -3 -3 -73 c-2 -63 -5 -73 -20 -70 -13 3 -18 18 -22 73 -4 53 -9 70 -20 70 -12 0 -16 -19 -18 -101 l-3 -100 -62 -23 c-99 -36 -128 -41 -133 -26 -7 16 1 165 11 218 l7 37 -62 0 -62 0 7 -32 c4 -18 9 -76 12 -129 5 -109 -4 -129 -58 -129 -63 0 -69 10 -69 120 0 55 4 102 10 105 6 3 10 19 10 36 0 29 -1 29 -56 29 l-56 0 7 -37 c4 -21 9 -100 12 -176 4 -122 2 -141 -13 -158 -9 -10 -25 -19 -35 -19 -10 0 -36 -6 -56 -14 -21 -7 -63 -19 -93 -25 -30 -7 -84 -18 -120 -26 -193 -41 -448 -69 -737 -81 -122 -5 -156 -4 -169 7 -15 12 -16 35 -9 224 4 115 8 235 8 265 l2 55 -72 3 c-61 2 -73 0 -81 -15 -14 -25 -3 -72 19 -84 17 -9 19 -23 19 -145 0 -130 -1 -136 -25 -159 -19 -20 -34 -25 -74 -25 -67 0 -98 16 -107 53 -8 39 5 277 16 277 15 0 22 58 10 80 -10 19 -19 21 -83 18 l-72 -3 3 -55 c1 -30 5 -144 8 -253 5 -182 4 -198 -12 -204 -10 -4 -74 -1 -143 6 -70 7 -184 16 -256 21 -71 5 -168 14 -215 20 -47 5 -135 10 -197 10 -61 0 -117 2 -125 5 -11 4 -13 45 -10 210 3 112 1 216 -2 230 -6 23 -11 26 -44 23 l-37 -3 -3 -157 c-2 -145 -4 -158 -22 -168 -12 -6 -68 -9 -137 -8 l-118 3 -5 165 -5 165 -306 3 c-168 1 -308 -1 -312 -5z m4205 -421 c-27 -35 -107 -182 -122 -227 -4 -11 -15 -37 -24 -58 -9 -21 -16 -44 -16 -52 0 -9 -4 -23 -9 -33 -6 -9 -17 -44 -26 -77 -9 -33 -23 -85 -32 -115 -28 -103 -31 -115 -38 -152 -3 -21 -11 -38 -17 -38 -14 0 -5 315 12 435 24 168 70 260 166 326 102 70 164 65 106 -9z m-222 -48 c0 -3 -16 -35 -35 -71 -19 -36 -35 -72 -35 -79 0 -7 -4 -16 -10 -19 -6 -4 -10 23 -10 74 0 74 2 81 19 81 11 0 23 5 26 10 6 10 45 14 45 4z m-162 -195 c3 -148 -2 -159 -73 -159 -66 0 -75 15 -75 123 0 51 3 101 6 113 6 23 74 53 114 51 l25 -2 3 -126z m-210 -85 c2 -123 0 -142 -14 -148 -11 -4 -18 0 -21 14 -3 11 -9 20 -14 20 -4 0 -15 15 -24 34 -17 35 -79 98 -127 129 -28 18 -36 41 -18 52 6 3 31 10 58 15 26 5 63 13 82 19 76 21 75 23 78 -135z m-268 49 c39 -13 67 -32 112 -77 33 -34 69 -77 79 -96 11 -19 33 -58 48 -85 29 -50 29 -52 32 -232 2 -100 1 -185 -2 -188 -12 -12 -39 8 -39 29 0 12 -7 31 -15 42 -8 10 -15 31 -15 47 0 15 -4 27 -10 27 -5 0 -10 9 -10 21 0 11 -6 33 -14 47 -7 15 -33 68 -56 117 -24 50 -54 104 -67 122 -12 17 -23 36 -23 41 0 6 -36 48 -80 94 -44 45 -80 86 -80 90 0 21 77 21 140 1z m-2472 -3 c51 -6 106 -17 122 -25 16 -8 40 -15 54 -15 14 0 28 -4 31 -10 3 -5 17 -10 29 -10 13 0 29 -7 36 -15 7 -8 19 -15 26 -15 8 0 32 -11 54 -25 22 -14 43 -25 47 -25 5 0 19 -10 33 -22 14 -13 44 -35 67 -51 88 -57 330 -315 398 -426 6 -9 34 -51 63 -94 28 -43 52 -80 52 -83 0 -2 18 -32 39 -67 l39 -64 4 -248 c2 -160 -1 -249 -7 -251 -5 -2 -38 55 -73 126 -35 71 -67 132 -73 135 -5 4 -9 15 -9 26 0 10 -4 19 -8 19 -5 0 -18 21 -30 48 -24 51 -71 134 -81 142 -4 3 -12 16 -19 30 -18 37 -42 77 -90 148 -89 134 -142 206 -231 317 -14 16 -69 74 -124 127 -105 104 -215 183 -337 243 -41 20 -102 49 -134 66 l-60 29 45 0 c24 0 86 -5 137 -10z m871 -30 c112 -5 207 -12 210 -16 8 -7 14 -783 6 -803 -4 -10 -17 3 -40 42 -19 32 -53 82 -75 112 -22 30 -40 58 -40 63 0 5 -11 21 -25 36 -14 15 -44 53 -67 84 -139 189 -350 371 -525 452 -105 49 -89 54 145 47 114 -4 299 -11 411 -17z m1331 12 c0 -4 -25 -32 -56 -62 -65 -63 -141 -163 -202 -267 -49 -83 -155 -294 -182 -362 -23 -58 -68 -161 -80 -183 -6 -10 -10 -25 -10 -33 0 -9 -7 -27 -16 -40 -9 -14 -14 -34 -11 -45 3 -12 0 -20 -8 -20 -12 0 -45 -82 -45 -113 0 -8 -7 -20 -16 -28 -10 -8 -14 -23 -12 -41 3 -19 0 -28 -9 -28 -8 0 -13 -12 -13 -29 0 -16 -7 -34 -15 -41 -8 -7 -15 -28 -15 -46 0 -35 -5 -40 -29 -25 -12 8 -13 56 -9 293 l6 283 33 80 c30 71 112 238 150 305 8 14 20 29 27 33 6 4 12 15 12 22 0 8 4 15 9 15 5 0 11 6 13 14 2 8 17 31 35 52 17 22 51 64 75 94 53 66 161 156 203 169 37 11 165 14 165 3z m-280 -30 c0 -3 -21 -27 -48 -52 -52 -50 -150 -169 -181 -222 -11 -18 -31 -51 -43 -73 -12 -22 -28 -49 -35 -60 -7 -11 -30 -57 -52 -101 -41 -84 -70 -113 -72 -71 -2 102 3 547 8 564 5 22 8 23 202 25 193 3 221 2 221 -10z m-520 -201 c0 -248 5 -236 -113 -236 -110 1 -107 -4 -107 219 0 100 3 191 6 204 6 21 11 22 110 22 l104 0 0 -209z m1517 34 c7 -19 -45 -218 -63 -243 -12 -16 -13 -16 -19 3 -4 11 -13 34 -21 52 -14 31 -19 157 -8 187 9 22 102 23 111 1z m33 -205 c0 -32 -23 -66 -39 -56 -10 7 -7 66 6 106 7 22 33 -17 33 -50z m-128 -192 c-13 -13 -24 5 -16 27 7 16 8 16 17 0 6 -11 6 -20 -1 -27z m113 -20 c0 -92 -20 -74 -42 35 -5 26 -3 28 18 25 22 -3 24 -8 24 -60z m-1537 -130 c2 -137 1 -150 -22 -202 l-25 -56 -67 0 c-105 0 -104 -2 -104 210 0 126 3 179 12 188 9 9 42 12 108 10 l95 -3 3 -147z m1492 56 c31 -71 28 -84 -20 -84 -40 0 -40 0 -40 39 0 46 15 91 30 91 6 0 20 -21 30 -46z m-1657 -526 c21 -45 21 -48 0 -95 -47 -109 -52 -117 -59 -100 -4 13 0 246 5 276 2 8 38 -46 54 -81z m67 62 c0 -29 -30 -38 -46 -15 -21 28 -17 35 16 35 23 0 30 -4 30 -20z m100 -130 c0 -82 -3 -150 -7 -150 -10 0 -43 32 -43 42 0 4 -11 31 -25 60 -29 59 -31 82 -11 129 7 19 16 42 19 52 4 11 17 17 37 17 l30 0 0 -150z m-100 -64 c0 -7 7 -27 16 -44 25 -51 16 -67 -39 -70 -44 -3 -47 -2 -47 21 0 29 28 99 43 109 14 8 27 1 27 -16z"/>
 </g>

</svg>