<!DOCTYPE svg PUBLIC "-//W3C//DTD SVG 20010904//EN" "http://www.w3.org/TR/2001/REC-SVG-20010904/DTD/svg10.dtd">
<svg version="1.0" xmlns="http://www.w3.org/2000/svg" width="476px" height="432px" viewBox="0 0 4760 4320" preserveAspectRatio="xMidYMid meet">
<g id="layer101" fill="#0e0e6d" stroke="none">
 <path d="M1094 4106 c-3 -7 -4 -39 -2 -71 l3 -57 49 -19 c60 -22 79 -40 119 -106 17 -29 37 -53 44 -53 7 0 20 12 29 28 50 80 70 103 108 122 92 44 184 13 251 -85 22 -32 45 -60 50 -61 6 -1 28 25 50 59 51 79 106 111 178 103 60 -7 100 -35 143 -102 19 -29 39 -56 44 -59 15 -9 37 11 56 51 24 51 85 101 133 109 93 16 166 -23 217 -114 33 -59 50 -57 84 6 45 85 143 130 224 103 41 -13 88 -58 123 -117 14 -24 31 -43 38 -43 7 0 31 29 53 64 96 153 251 141 351 -26 13 -21 27 -38 32 -38 4 0 24 24 43 54 35 55 92 106 117 106 8 0 25 7 37 16 20 14 23 23 20 77 l-3 62 -1293 3 c-1085 2 -1293 0 -1298 -12z"/>
 <path d="M1577 3873 c-4 -3 -7 -223 -7 -489 0 -430 2 -483 16 -488 31 -12 299 -7 317 7 16 11 17 49 15 487 -3 469 -3 475 -23 472 -24 -4 -83 -64 -107 -111 -22 -39 -47 -38 -67 4 -17 36 -105 125 -124 125 -7 0 -17 -3 -20 -7z"/>
 <path d="M2847 3873 c-4 -3 -7 -221 -7 -483 0 -357 3 -479 12 -488 13 -13 291 -18 322 -6 14 5 16 58 16 490 0 266 -3 484 -6 484 -29 0 -94 -64 -119 -117 -22 -46 -47 -42 -72 11 -33 66 -122 134 -146 109z"/>
 <path d="M1086 2748 c-9 -34 -7 -351 2 -366 7 -10 272 -12 1293 -10 l1284 3 0 195 0 195 -1286 3 -1287 2 -6 -22z"/>
 <path d="M1092 2288 c-17 -17 -17 -479 0 -496 8 -8 62 -12 179 -12 195 0 179 12 179 -137 l0 -93 108 0 c161 0 152 6 152 -112 0 -92 2 -101 24 -121 95 -88 618 -95 754 -11 l22 14 0 440 c0 432 0 439 20 450 35 18 58 4 62 -38 l3 -37 89 -3 c50 -2 96 -8 102 -13 13 -11 15 -22 34 -194 6 -55 17 -152 25 -215 7 -63 19 -162 25 -220 6 -58 15 -136 21 -175 5 -38 14 -113 19 -165 24 -217 30 -271 45 -400 9 -74 20 -173 26 -220 5 -47 15 -140 22 -207 8 -67 20 -129 27 -138 10 -12 36 -15 126 -15 150 0 137 -21 169 280 3 30 12 105 20 165 8 61 19 148 24 195 6 47 17 141 26 210 28 219 34 272 50 410 9 74 23 178 31 230 8 53 14 110 14 128 0 30 4 61 30 242 6 41 15 79 21 85 5 5 40 12 77 15 l67 5 3 74 c2 53 -1 77 -10 82 -7 5 -589 9 -1293 9 -983 0 -1284 -3 -1293 -12z m2332 -167 c8 -12 -14 -35 -119 -127 -49 -43 -99 -87 -109 -96 -29 -27 -46 -22 -96 25 -25 23 -65 58 -90 78 -76 62 -122 108 -115 119 8 13 522 14 529 1z m26 -143 c-1 -13 -7 -52 -15 -88 -8 -36 -15 -87 -15 -115 0 -63 -8 -92 -26 -99 -18 -7 -164 122 -164 145 0 21 178 178 203 179 11 0 17 -7 17 -22z m-454 -60 c46 -39 86 -80 89 -90 5 -13 -10 -33 -56 -75 -34 -32 -68 -62 -75 -66 -31 -18 -40 9 -54 168 -5 55 -12 108 -15 118 -15 36 28 15 111 -55z m275 -241 c51 -46 95 -90 97 -98 2 -9 -30 -43 -75 -81 -43 -36 -89 -76 -102 -87 -14 -12 -29 -20 -33 -19 -5 2 -52 39 -104 83 -105 90 -112 106 -61 150 17 16 59 53 91 82 33 29 67 53 76 53 9 0 59 -37 111 -83z m-247 -272 c73 -61 74 -67 20 -117 -25 -24 -50 -44 -55 -46 -16 -7 -48 175 -34 198 9 15 14 12 69 -35z m346 -22 c0 -75 -15 -143 -32 -143 -16 0 -108 80 -108 95 0 16 109 115 127 115 9 0 13 -19 13 -67z m-157 -141 c23 -22 52 -47 65 -58 36 -30 35 -32 -54 -101 -23 -18 -52 -33 -64 -33 -19 0 -140 86 -140 100 1 15 126 130 141 130 5 0 28 -17 52 -38z m-163 -214 c17 -12 30 -28 30 -35 0 -13 -48 -62 -61 -63 -8 0 -19 102 -12 113 6 11 11 9 43 -15z m271 -33 c-1 -28 -6 -54 -11 -58 -10 -11 -39 4 -64 32 -18 20 -18 21 14 51 47 44 65 37 61 -25z m-109 -87 c27 -18 48 -41 48 -50 0 -21 -70 -68 -100 -68 -30 0 -101 50 -98 69 3 14 82 81 96 81 4 0 28 -15 54 -32z m-134 -164 c8 -4 -12 -34 -23 -34 -16 0 -26 25 -19 45 5 13 9 13 23 3 9 -7 17 -13 19 -14z m212 -4 c0 -23 -5 -30 -19 -30 -27 0 -36 31 -15 47 27 20 34 16 34 -17z m-85 -72 c19 -13 35 -31 35 -41 0 -26 -60 -107 -79 -107 -20 1 -81 82 -81 108 0 10 16 27 38 40 46 27 45 27 87 0z m-114 -196 c21 -20 17 -52 -6 -52 -14 0 -25 22 -25 51 0 24 6 24 31 1z m165 -38 c-7 -19 -32 -18 -40 3 -5 11 1 23 16 35 22 16 23 16 26 -3 2 -11 1 -27 -2 -35z m-66 -90 c21 -21 22 -27 10 -34 -20 -13 -47 -12 -72 1 -20 11 -20 11 3 35 28 30 30 30 59 -2z"/>
 </g>

</svg>